<svg width="32" height="32" viewBox="0 0 32 32" fill="none" xmlns="http://www.w3.org/2000/svg">
<g id="Linear / Video, Audio, Sound / Library">
<path id="Vector" d="M26.0826 9.33333C26.3875 7.59364 25.0488 6 23.2826 6H8.71749C6.9513 6 5.61262 7.59364 5.91745 9.33333" stroke="#F4F7FF" stroke-width="2"/>
<path id="Vector_2" d="M23.3332 5.99984C23.3711 5.6544 23.39 5.48164 23.3903 5.33896C23.3933 3.97413 22.3652 2.82736 21.0082 2.68173C20.8663 2.6665 20.6926 2.6665 20.345 2.6665H11.6547C11.3071 2.6665 11.1334 2.6665 10.9915 2.68173C9.63446 2.82736 8.60642 3.97413 8.60938 5.33896C8.60969 5.48164 8.62861 5.65437 8.66644 5.99984" stroke="#F4F7FF" stroke-width="2"/>
<path id="Vector_3" d="M20 24H12" stroke="#F4F7FF" stroke-width="2" stroke-linecap="round"/>
<path id="Vector_4" d="M3.17785 18.3908C2.58315 14.1727 2.2858 12.0637 3.54959 10.6986C4.81339 9.3335 7.06327 9.3335 11.563 9.3335H20.4366C24.9364 9.3335 27.1863 9.3335 28.4501 10.6986C29.7139 12.0637 29.4165 14.1727 28.8218 18.3908L28.2579 22.3908C27.7915 25.6986 27.5583 27.3526 26.3621 28.343C25.1658 29.3335 23.4014 29.3335 19.8727 29.3335H12.127C8.59825 29.3335 6.83387 29.3335 5.63762 28.343C4.44137 27.3526 4.20818 25.6986 3.74181 22.3908L3.17785 18.3908Z" stroke="#F4F7FF" stroke-width="2"/>
</g>
</svg>
