<svg width="24" height="25" viewBox="0 0 24 25" fill="none" xmlns="http://www.w3.org/2000/svg">
<g id="Icon">
<path id="Vector" d="M19.0979 6.22892C18.9996 6.13047 18.8829 6.05238 18.7545 5.99909C18.626 5.9458 18.4883 5.91837 18.3492 5.91837C18.2102 5.91837 18.0724 5.9458 17.944 5.99909C17.8155 6.05238 17.6988 6.13047 17.6006 6.22892L12.408 11.4109L7.21532 6.2183C7.11701 6.11998 7.00029 6.042 6.87184 5.98879C6.74339 5.93559 6.60572 5.9082 6.46669 5.9082C6.32765 5.9082 6.18998 5.93559 6.06153 5.98879C5.93308 6.042 5.81636 6.11998 5.71805 6.2183C5.61974 6.31661 5.54176 6.43332 5.48855 6.56177C5.43534 6.69022 5.40796 6.8279 5.40796 6.96693C5.40796 7.10596 5.43534 7.24364 5.48855 7.37209C5.54176 7.50054 5.61974 7.61725 5.71805 7.71556L10.9107 12.9082L5.71805 18.1008C5.61974 18.1992 5.54176 18.3159 5.48855 18.4443C5.43534 18.5728 5.40796 18.7104 5.40796 18.8495C5.40796 18.9885 5.43534 19.1262 5.48855 19.2546C5.54176 19.3831 5.61974 19.4998 5.71805 19.5981C5.81636 19.6964 5.93308 19.7744 6.06153 19.8276C6.18998 19.8808 6.32765 19.9082 6.46669 19.9082C6.60572 19.9082 6.74339 19.8808 6.87184 19.8276C7.00029 19.7744 7.11701 19.6964 7.21532 19.5981L12.408 14.4055L17.6006 19.5981C17.6989 19.6964 17.8156 19.7744 17.9441 19.8276C18.0725 19.8808 18.2102 19.9082 18.3492 19.9082C18.4883 19.9082 18.6259 19.8808 18.7544 19.8276C18.8828 19.7744 18.9996 19.6964 19.0979 19.5981C19.1962 19.4998 19.2742 19.3831 19.3274 19.2546C19.3806 19.1262 19.408 18.9885 19.408 18.8495C19.408 18.7104 19.3806 18.5728 19.3274 18.4443C19.2742 18.3159 19.1962 18.1992 19.0979 18.1008L13.9052 12.9082L19.0979 7.71556C19.5014 7.31204 19.5014 6.63243 19.0979 6.22892Z" fill="#F4F7FF"/>
</g>
</svg>
